<svg width="14" height="15" viewBox="0 0 14 15" fill="none" xmlns="http://www.w3.org/2000/svg">
<path d="M12.9996 0H5.77593C5.2611 0 4.84229 0.48075 4.84229 1.07165V3.58689C5.04072 3.58689 8.93523 3.58689 9.09071 3.58689C10.0755 3.58689 10.8767 4.50649 10.8767 5.63684C10.8767 5.84843 10.8767 10.3811 10.8767 10.4348H12.9996C13.5145 10.4348 13.9333 9.9541 13.9333 9.36316V1.07165C13.9333 0.48075 13.5145 0 12.9996 0Z" fill="white"/>
<path d="M9.09071 4.56512H1.86702C1.35222 4.56512 0.93335 5.04587 0.93335 5.63681V13.9283C0.933378 14.5192 1.35219 15 1.86702 15H9.09074C9.60558 15 10.0244 14.5192 10.0244 13.9283V5.63681C10.0244 5.04587 9.60555 4.56512 9.09071 4.56512Z" fill="white"/>
</svg>
