<svg width="25" height="18" viewBox="0 0 25 18" fill="none" xmlns="http://www.w3.org/2000/svg">
<path d="M13.3334 13.5C13.3334 13.8314 12.9603 14.1 12.5001 14.1C12.0399 14.1 11.6667 13.8314 11.6667 13.5C11.6667 13.1687 12.0399 12.9 12.5001 12.9C12.9603 12.9 13.3334 13.1687 13.3334 13.5Z" fill="#444444"/>
<path d="M9.16667 15.9V17.4H6.25V18H18.75V17.4H15.8333V15.9H15V17.4H10V15.9H9.16667Z" fill="#444444"/>
<path d="M23.75 0H1.25C0.559896 0.000585937 0.000813802 0.403125 0 0.9V14.4C0.000813802 14.8969 0.559896 15.2994 1.25 15.3H23.75C24.4401 15.2994 24.9992 14.8969 25 14.4V0.9C24.9992 0.403125 24.4401 0.000585937 23.75 0ZM24.1667 14.4C24.1665 14.5657 23.9801 14.6999 23.75 14.7H1.25C1.0199 14.6999 0.833537 14.5657 0.833333 14.4V12.3H24.1667V14.4ZM24.1667 11.7H0.833333V0.9C0.833537 0.734326 1.0199 0.600146 1.25 0.6H23.75C23.9801 0.600146 24.1665 0.734326 24.1667 0.9V11.7Z" fill="#444444"/>
</svg>
