<svg width="20" height="16" viewBox="0 0 20 16" fill="none" xmlns="http://www.w3.org/2000/svg">
<path d="M19.953 9.31824C19.9166 9.2615 19.0474 7.91449 17.3863 6.55218C16.4099 5.75136 15.3618 5.11303 14.2709 4.6548C12.9042 4.08047 11.4671 3.78937 9.99998 3.78937C8.53285 3.78937 7.09593 4.08047 5.72905 4.6548C4.63821 5.11303 3.59008 5.75136 2.61367 6.55218C0.952604 7.91449 0.0833128 9.2615 0.0471496 9.31824C-0.0157165 9.41656 -0.0157165 9.54302 0.0471496 9.64135C0.0833128 9.69808 0.952604 11.0451 2.61367 12.4074C3.59008 13.2082 4.63821 13.8466 5.72905 14.3049C7.09593 14.8791 8.53285 15.1702 9.99998 15.1702C10.9825 15.1702 11.9578 15.039 12.8995 14.7802C13.0559 14.737 13.1483 14.5736 13.1057 14.4152C13.0633 14.2565 12.9019 14.163 12.7456 14.206C11.8542 14.4512 10.9305 14.5753 9.99998 14.5753C6.85912 14.5753 4.45907 13.1519 2.9988 11.9578C1.73141 10.9216 0.930327 9.87262 0.651091 9.47979C0.930479 9.08681 1.73141 8.03802 2.9988 7.00175C4.45907 5.80764 6.85912 4.38426 9.99998 4.38426C13.1408 4.38426 15.5409 5.80764 17.0013 7.00175C18.2687 8.03802 19.0698 9.08696 19.349 9.47979C18.8946 10.1186 17.0576 12.492 14.0413 13.7574C13.8916 13.8203 13.8203 13.9942 13.8824 14.146C13.9444 14.2977 14.116 14.3699 14.2659 14.3069C16.1772 13.5052 17.6194 12.2823 18.4927 11.3979C19.4403 10.438 19.9324 9.6735 19.953 9.64135C20.0157 9.54302 20.0157 9.41656 19.953 9.31824Z" fill="#444444"/>
<path d="M9.99999 5.05829C7.59369 5.05829 5.63599 7.04177 5.63599 9.47978C5.63599 11.9178 7.59369 13.9013 9.99999 13.9013C12.4063 13.9013 14.364 11.9178 14.364 9.47978C14.364 7.04177 12.4063 5.05829 9.99999 5.05829ZM9.99999 13.3064C7.91748 13.3064 6.22314 11.5899 6.22314 9.47978C6.22314 7.36983 7.91748 5.65318 9.99999 5.65318C12.0827 5.65318 13.777 7.36983 13.777 9.47978C13.777 11.5899 12.0827 13.3064 9.99999 13.3064Z" fill="#444444"/>
<path d="M10 8.23059C9.32022 8.23059 8.76709 8.79101 8.76709 9.47974C8.76709 10.1685 9.32022 10.7289 10 10.7289C10.6798 10.7289 11.2329 10.1685 11.2329 9.47974C11.2329 8.79101 10.6798 8.23059 10 8.23059ZM10 10.134C9.64401 10.134 9.35425 9.84057 9.35425 9.47974C9.35425 9.11891 9.64401 8.82548 10 8.82548C10.3561 8.82548 10.6459 9.11891 10.6459 9.47974C10.6459 9.84057 10.3561 10.134 10 10.134Z" fill="#444444"/>
<path d="M10 2.1636C10.1622 2.1636 10.2936 2.03049 10.2936 1.86615V0.91445C10.2936 0.750113 10.1622 0.617004 10 0.617004C9.83795 0.617004 9.70642 0.750113 9.70642 0.91445V1.86615C9.70642 2.03049 9.83795 2.1636 10 2.1636Z" fill="#444444"/>
<path d="M5.98839 3.03491C6.07476 3.18626 6.27754 3.22939 6.41686 3.1255C6.53572 3.03692 6.57051 2.86686 6.49681 2.73746L6.02715 1.9133C5.94612 1.77107 5.76668 1.72238 5.6263 1.80447C5.48577 1.88656 5.4377 2.06852 5.51873 2.21075L5.98839 3.03491Z" fill="#444444"/>
<path d="M13.6105 3.14375C13.7492 3.22476 13.9317 3.17513 14.0115 3.03491L14.4812 2.21075C14.5624 2.06852 14.5142 1.88656 14.3738 1.80447C14.2334 1.72238 14.0538 1.77107 13.9728 1.9133L13.5031 2.73746C13.4221 2.87969 13.4701 3.06165 13.6105 3.14375Z" fill="#444444"/>
</svg>
