<svg width="29" height="15" viewBox="0 0 29 15" fill="none" xmlns="http://www.w3.org/2000/svg">
<path d="M26.3852 6.1413C26.3494 6.09445 26.3054 6.06091 26.26 6.03109C26.4939 5.63445 26.6742 5.22024 26.8086 4.79325C28.231 3.53464 29 2.05562 29 0.532406C29 0.238518 28.7835 0 28.5167 0C28.2499 0 28.0333 0.238518 28.0333 0.532406C28.0333 1.72499 27.3828 2.91279 26.1942 3.96216C26.1706 3.97601 26.1454 3.98612 26.1237 4.00476C23.6263 6.13225 19.0796 7.45421 14.2588 7.45421C10.3105 7.45421 6.55062 6.57468 3.93433 5.07223C2.0996 3.87591 0.966667 2.15305 0.966667 0.532406C0.966667 0.238518 0.750133 0 0.483333 0C0.216533 0 0 0.238518 0 0.532406C0 2.13867 0.8526 3.79339 2.29342 5.10258C2.29728 5.11482 2.29728 5.1276 2.30163 5.13984C2.42972 5.47047 2.59888 5.78885 2.78738 6.09977C2.7724 6.11468 2.75403 6.1232 2.74098 6.14077L0.51475 9.06953C0.34365 9.29474 0.370233 9.63069 0.575167 9.81969C0.666033 9.90328 0.77575 9.94374 0.885467 9.94374C1.0237 9.94374 1.16048 9.87879 1.25618 9.75314L3.38768 6.94896C3.9701 7.65014 4.71395 8.28104 5.57912 8.83261L4.05468 11.8695C3.92563 12.1271 4.01022 12.4514 4.24367 12.5935C4.31762 12.6388 4.39785 12.6601 4.47712 12.6601C4.64725 12.6601 4.81255 12.561 4.90052 12.3854L6.43413 9.33041C7.3051 9.79094 8.26887 10.1796 9.31142 10.4767L9.0364 13.9852C9.0132 14.2781 9.2104 14.5363 9.47623 14.5613C9.49025 14.5629 9.50427 14.5634 9.51828 14.5634C9.76672 14.5634 9.97745 14.3542 9.9992 14.0768L10.2626 10.7189C11.4613 10.9889 12.7416 11.1417 14.066 11.1699L14.0167 14.4585C14.0123 14.7524 14.225 14.9947 14.4918 15C14.4947 15 14.4971 15 14.5 15C14.7629 15 14.9785 14.7673 14.9833 14.4766L15.0326 11.1661C16.3695 11.131 17.6591 10.9713 18.8621 10.6912L19.1274 14.0763C19.1492 14.3537 19.3599 14.5629 19.6083 14.5629C19.6224 14.5629 19.6364 14.5624 19.6504 14.5608C19.9162 14.5357 20.1134 14.2775 20.0902 13.9847L19.8123 10.4399C20.8471 10.1359 21.8065 9.74515 22.6669 9.27983L24.2256 12.3848C24.3136 12.5605 24.4789 12.6595 24.649 12.6595C24.7283 12.6595 24.8085 12.6382 24.8825 12.593C25.1159 12.4508 25.201 12.1271 25.0715 11.8695L23.5171 8.77245C24.3764 8.21236 25.1019 7.56921 25.6732 6.86271L27.87 9.75314C27.9657 9.87879 28.1024 9.94374 28.2407 9.94374C28.3504 9.94374 28.4601 9.90275 28.551 9.81969C28.7554 9.63122 28.7825 9.29527 28.6114 9.06953L26.3852 6.1413ZM14.5 10.1162C10.2022 10.1162 6.28527 8.64946 4.28717 6.44956C6.97305 7.77845 10.4878 8.51902 14.2583 8.51902C18.4537 8.51902 22.3479 7.59051 25.1005 5.98211C23.2643 8.42692 19.1207 10.1162 14.5 10.1162Z" fill="#444444"/>
</svg>
