<svg width="10" height="18" viewBox="0 0 10 18" fill="none" xmlns="http://www.w3.org/2000/svg">
<path d="M8.52941 0H1.47059C1.0807 0.000432237 0.706903 0.153508 0.431209 0.425645C0.155515 0.697782 0.000437888 1.06675 0 1.45161V16.5484C0.000437888 16.9332 0.155515 17.3022 0.431209 17.5744C0.706903 17.8465 1.0807 17.9996 1.47059 18H8.52941C8.9193 17.9996 9.2931 17.8465 9.56879 17.5744C9.84449 17.3022 9.99956 16.9332 10 16.5484V1.45161C9.99956 1.06675 9.84449 0.697782 9.56879 0.425645C9.2931 0.153508 8.9193 0.000432237 8.52941 0ZM6.99419 0.580645L6.81772 1.45161H3.18232L3.00585 0.580645H6.99419ZM9.41177 16.5484C9.4115 16.7793 9.31846 17.0007 9.15304 17.164C8.98762 17.3272 8.76335 17.4191 8.52941 17.4194H1.47059C1.23665 17.4191 1.01238 17.3272 0.84696 17.164C0.681544 17.0007 0.588498 16.7793 0.588235 16.5484V1.45161C0.588498 1.2207 0.681544 0.999314 0.84696 0.836032C1.01238 0.67275 1.23665 0.580904 1.47059 0.580645H2.40592L2.65276 1.79887C2.66609 1.86469 2.70212 1.92391 2.7547 1.96646C2.80729 2.00901 2.87318 2.03226 2.94118 2.03226H7.05882C7.12682 2.03226 7.19271 2.00901 7.2453 1.96646C7.29788 1.92391 7.33391 1.86469 7.34724 1.79887L7.59408 0.580645H8.52941C8.76335 0.580904 8.98762 0.67275 9.15304 0.836032C9.31846 0.999314 9.4115 1.2207 9.41177 1.45161V16.5484Z" fill="#444444"/>
<path d="M3.23528 16.2581H1.47057C1.39257 16.2581 1.31776 16.2886 1.2626 16.3431C1.20744 16.3975 1.17645 16.4714 1.17645 16.5484C1.17645 16.6254 1.20744 16.6992 1.2626 16.7537C1.31776 16.8081 1.39257 16.8387 1.47057 16.8387H3.23528C3.31328 16.8387 3.38809 16.8081 3.44325 16.7537C3.49841 16.6992 3.52939 16.6254 3.52939 16.5484C3.52939 16.4714 3.49841 16.3975 3.44325 16.3431C3.38809 16.2886 3.31328 16.2581 3.23528 16.2581Z" fill="#444444"/>
<path d="M4.41178 16.2581H4.11766C4.03966 16.2581 3.96485 16.2886 3.90969 16.3431C3.85453 16.3975 3.82355 16.4714 3.82355 16.5484C3.82355 16.6254 3.85453 16.6992 3.90969 16.7537C3.96485 16.8081 4.03966 16.8387 4.11766 16.8387H4.41178C4.48979 16.8387 4.5646 16.8081 4.61976 16.7537C4.67491 16.6992 4.7059 16.6254 4.7059 16.5484C4.7059 16.4714 4.67491 16.3975 4.61976 16.3431C4.5646 16.2886 4.48979 16.2581 4.41178 16.2581Z" fill="#444444"/>
</svg>
