<svg width="20" height="20" viewBox="0 0 20 20" fill="none" xmlns="http://www.w3.org/2000/svg">
<path d="M19.9582 7.57653C19.9578 7.57535 19.9576 7.57416 19.9573 7.57298C19.9569 7.57183 19.9564 7.57077 19.956 7.56962C19.853 7.24179 19.5867 7.00748 19.2602 6.9578L13.3966 6.06587L10.7743 0.503867C10.6278 0.19305 10.331 0 9.99998 0C9.66888 0 9.37216 0.193091 9.22564 0.503867L6.60338 6.06591L5.42172 6.24567C5.2616 6.27004 5.15066 6.42564 5.17394 6.59329C5.19723 6.76091 5.34578 6.87704 5.50598 6.85267L6.66494 6.67638L7.79128 8.29925L4.56718 8.78967L0.922561 7.54987L4.15842 7.05766C4.31854 7.03333 4.42948 6.8777 4.4062 6.71008C4.38292 6.54246 4.23444 6.42617 4.07416 6.4507L0.739825 6.9578C0.413688 7.0074 0.147669 7.24126 0.0443469 7.56848C0.0438391 7.56999 0.043175 7.57142 0.0427063 7.57298C0.0421985 7.57453 0.0419641 7.57613 0.0414953 7.57772C-0.0585841 7.906 0.0253232 8.25881 0.261264 8.49958L4.50417 12.829L3.50256 18.9423C3.44658 19.2839 3.57822 19.6227 3.84604 19.8264C3.99741 19.9415 4.17448 20 4.3528 20C4.49003 20 4.628 19.9653 4.75546 19.8952L9.99998 17.0089L11.1065 17.6179C11.2497 17.6967 11.4268 17.639 11.5021 17.4891C11.5774 17.3392 11.5224 17.1538 11.3792 17.0749L10.293 16.4771V14.4712L13.1765 16.0581L15.4292 19.3039L12.5922 17.7425C12.4489 17.6637 12.2718 17.7213 12.1965 17.8712C12.1212 18.0212 12.1763 18.2066 12.3195 18.2854L15.2445 19.8952C15.372 19.9653 15.5099 20 15.6471 20C15.8254 20 16.0025 19.9415 16.1538 19.8264C16.4217 19.6227 16.5533 19.2839 16.4974 18.9423L15.4958 12.829L19.7387 8.49958C19.975 8.25857 20.0588 7.90518 19.9582 7.57653ZM15.4327 8.78959L12.2086 8.29917L13.335 6.6763L19.0774 7.54979L15.4327 8.78959ZM9.70701 0.868826V4.88071L8.26535 7.93867L7.13901 6.31584L9.70701 0.868826ZM0.741661 8.13323L4.38682 9.37319L6.71924 11.7532L4.89675 12.373L0.741661 8.13323ZM5.07781 12.9564L6.90029 12.3365L6.34966 15.6973L4.09698 18.943L5.07781 12.9564ZM4.57073 19.3039L6.8235 16.0581L9.70701 14.4712V16.4771L4.57073 19.3039ZM10.1363 13.692C10.0509 13.6451 9.94901 13.6451 9.86365 13.692L7.01592 15.2593L7.55979 11.9398C7.57608 11.8404 7.5446 11.7388 7.47554 11.6684L5.17164 9.3175L8.35555 8.83318C8.45098 8.81866 8.53348 8.75593 8.57614 8.6654L9.99998 5.64526L10.2849 6.24972C10.3565 6.40155 10.5321 6.46395 10.6773 6.389C10.8224 6.31404 10.882 6.13011 10.8104 5.97824L10.293 4.88071V0.868866L12.861 6.31584L11.7347 7.93867L11.4195 7.27021C11.3479 7.11834 11.1722 7.05598 11.0271 7.13094C10.882 7.20589 10.8225 7.38982 10.8941 7.54169L11.4239 8.66544C11.4665 8.75593 11.549 8.8187 11.6445 8.83322L14.8283 9.31754L12.5245 11.6684C12.4554 11.7389 12.4239 11.8404 12.4402 11.9399L12.9841 15.2593L10.1363 13.692ZM15.903 18.943L13.6503 15.6973L13.0997 12.3365L14.9221 12.9564L15.903 18.943ZM15.1032 12.373L13.2807 11.7532L15.6132 9.37315L19.2583 8.13319L15.1032 12.373Z" fill="#444444"/>
</svg>
